# xmcd CD database file
#
# Track frame offsets:
#	150
#	12561
#	25328
#	35216
#	45232
#	55323
#	65114
#	76221
#	85436
#	93097
#	104762
#	115449
#	128372
#	136851
#	147484
#	157791
#	165773
#	176524
#	189097
#	199277
#	211371
#	225082
#	236377
#	245311
#	255189
#
# Disc length: 3569 seconds
#
# Revision: 1
# Processed by: cddbd v1.5.2PL0 Copyright (c) Steve Scherf et al.
# Submitted via: CDex 1.70beta2
#
DISCID=3f0def19
DTITLE=Johnny Cash - I Walk The Line
DYEAR=2010
DGENRE=Country
TTITLE0=I Walk The Line
TTITLE1=Folsom Prison Blues
TTITLE2=Ballad Of A Teenage Queen
TTITLE3=Hey Porter
TTITLE4=Get Rhythm
TTITLE5=Rock Island Line
TTITLE6=Cry Cry Cry
TTITLE7=Luther Played The Boogie
TTITLE8=Hey Good Lookin'
TTITLE9=I Still Miss Someone
TTITLE10=You Win Again
TTITLE11=Suppertime
TTITLE12=I Forgot To Remember To Forget
TTITLE13=Run Softly, Blue River
TTITLE14=Frankie And Johnny
TTITLE15=Five Feet High And Rising
TTITLE16=Train Of Love
TTITLE17=Next In Line
TTITLE18=The Troubadour
TTITLE19=That's Enough
TTITLE20=Don't Take Your Guns To Town
TTITLE21=I'd Rather Die Young
TTITLE22=Pickin' Time
TTITLE23=Shepherd Of My Heart
TTITLE24=Ring Of Fire (Live)
EXTD=YEAR: 2010
EXTT0=
EXTT1=
EXTT2=
EXTT3=
EXTT4=
EXTT5=
EXTT6=
EXTT7=
EXTT8=
EXTT9=
EXTT10=
EXTT11=
EXTT12=
EXTT13=
EXTT14=
EXTT15=
EXTT16=
EXTT17=
EXTT18=
EXTT19=
EXTT20=
EXTT21=
EXTT22=
EXTT23=
EXTT24=
PLAYORDER=
